<svg width="60.897mm" height="67.921mm" version="1.1" viewBox="0 0 60.897 67.921" xmlns="http://www.w3.org/2000/svg">
 <path d="m30.478 67.9-24.925-23.244 0.0682-0.0636 24.893 20.252 24.854-20.221 0.0348 0.0324z" fill="#2870d0"/>
 <path d="m30.47 67.9-30.406-23.244 0.0832-0.0636 30.367 20.252 30.319-20.221 0.0424 0.0324z" fill="#333" stroke="#514b4b" stroke-linejoin="round" stroke-width=".040978"/>
 <path d="m39.766 24.198-8.3906 6.3951-5.9832 4.7503 6.7856-0.12635s5.0494 0.0096 7.488 0.21951c1.3029 0.11212 1.2491 1.119 1.2686 1.9087 0.01864 0.75442 0.03089 1.9255-1.12 1.894-3.8462-0.10514-10.843 0-10.843 0h-10.019s-0.89976-0.04961-0.94552-1.2761c-0.05315-1.4245 0.5987-2.0413 0.5987-2.0413l7.2197-5.8118 8.2849-6.171-7.7444 0.3533s-3.3841 0.04781-6.8662-0.04802c-0.52713-0.01451-1.3635-0.98814-1.3785-2.0451-0.01248-0.8791 0.68386-1.9887 1.4776-1.9967 2.2534-0.02268 9.3724-0.10975 9.3724-0.10975h10.795s1.1319 0.42443 1.0813 2.1733c-0.04649 1.6042-1.0813 1.9319-1.0813 1.9319z" fill="#2870d0" stroke-width="2.1301"/>
 <path d="m30.432 0.02-26.343 23.244 0.07208 0.0636 26.309-20.252 26.267 20.221 0.0367-0.0324z" fill="#2870d0"/>
 <path d="m30.426 0.02-30.406 23.244 0.0832 0.0636 30.367-20.252 30.319 20.221 0.0424-0.0324z" fill="#333" stroke="#514b4b" stroke-linejoin="round" stroke-width=".040978"/>
 <g transform="matrix(.54825 0 0 .64364 12.82 -57.795)" fill="#2870d0">
  <path d="m14.953 159.56-3.1514 3.734h3.1646v1.6022h-5.6804v-1.43l3.1514-3.734h-3.1778v-1.6286h5.6936z" stroke-width=".66205"/>
  <path d="m20.858 162.41 1.43 0.91363c-0.64881 1.046-1.6816 1.7346-3.1646 1.7346-2.1053 0-3.5883-1.5624-3.5883-3.5353s1.483-3.5486 3.5883-3.5486c1.4962 0 2.5423 0.71502 3.1778 1.7743l-1.4433 0.90038c-0.34427-0.56936-0.83418-0.99307-1.6684-0.99307-1.0725 0-1.8008 0.75473-1.8008 1.867 0 1.1122 0.72826 1.8802 1.8008 1.8802 0.83418 0 1.3241-0.42371 1.6684-0.99308z" stroke-width=".66205"/>
  <path transform="scale(.26458)" d="m98.854 597.3c-7.0063 0-12.963 5.8043-12.963 13.211 0 7.4066 5.9566 13.062 12.963 13.062 2.9026 1e-5 5.7042-0.85264 7.5059-2.2539v1.9023h6.957v-25.672h-6.957v2.0508c-1.8016-1.4012-4.6033-2.3008-7.5059-2.3008zm0.13086 5.873a7.2472 7.3115 0 0 1 7.5254 6.9199l0.01 0.38672a7.2472 7.3115 0 0 1-7.1523 7.3105 7.2472 7.3115 0 0 1-7.3398-7.1191 7.2472 7.3115 0 0 1 6.957-7.498z" stroke-width="2.5022"/>
  <path d="m32.577 164.9h-1.8537v-6.7926h1.8405v0.92687c0.45019-0.62232 1.1255-1.0196 1.9729-1.0196v1.8537c-1.3506 0-1.9597 0.75474-1.9597 1.9332z" stroke-width=".66205"/>
  <path d="m37.052 164.9h-1.8537v-9.0701h1.8537z" stroke-width=".66205"/>
  <path transform="scale(.26458)" d="m156.15 597.05c-7.857 0-13.762 5.9554-13.762 13.412 0 7.5067 5.8546 13.363 13.762 13.363 7.907 1e-5 13.812-5.9066 13.812-13.363 0-7.5067-5.9055-13.412-13.812-13.412zm-0.20508 5.9473a7.2472 7.3115 0 0 1 7.5234 6.9199l0.0117 0.38477a7.2472 7.3115 0 0 1-7.1524 7.3105 7.2472 7.3115 0 0 1-7.3398-7.1172 7.2472 7.3115 0 0 1 6.957-7.498z" stroke-width="2.5022"/>
  <path d="m45.46 162.76h1.867c0 0.41047 0.27806 0.91363 1.2579 0.92687 0.68853 0 1.0063-0.31778 1.0063-0.63557 0-1.1917-4.012 0.0265-4.012-2.8336 0-1.2314 1.0858-2.198 2.8071-2.198s2.8071 0.88714 2.913 2.251h-1.8405c-0.0265-0.48992-0.2251-0.86067-1.046-0.86067-0.52964 0-0.96659 0.17213-0.96659 0.59585 0 1.2182 4.1047 0.14565 4.1047 2.7276 0 1.6154-1.3506 2.2907-3.0587 2.2907-1.8537 0-2.9925-0.96659-3.0322-2.2642z" stroke-width=".66205"/>
 </g>
</svg>
